<svg width="1138" height="312" viewBox="0 0 1138 312" fill="none" xmlns="http://www.w3.org/2000/svg">
<path d="M111.398 2.67V4.75999C108.105 4.50666 105.002 5.20333 102.088 6.84999C99.3017 8.49666 97.1484 10.84 95.6284 13.88L63.3284 70.12V128.83C63.3284 130.097 63.7717 131.3 64.6584 132.44C65.6717 133.453 66.8751 133.96 68.2684 133.96V135.86H40.9084V133.96C42.3017 133.96 43.4417 133.453 44.3284 132.44C45.2151 131.427 45.6584 130.223 45.6584 128.83V72.59L8.9884 9.12999C7.97507 7.73666 6.64507 6.65999 4.9984 5.89999C3.4784 5.01333 1.83173 4.63333 0.0583985 4.75999V2.67H33.6884V4.75999C31.5351 4.75999 30.0151 5.13999 29.1284 5.89999C28.2417 6.53332 28.3684 7.92666 29.5084 10.08L61.6184 66.51L91.6384 13.88C93.0317 11.3467 93.4751 9.19333 92.9684 7.41999C92.5884 5.64666 90.6884 4.75999 87.2684 4.75999V2.67H111.398ZM177.216 0.769999C189.376 0.769999 199.572 2.73333 207.806 6.65999C216.039 10.5867 222.689 15.78 227.756 22.24C232.822 28.5733 236.432 35.8567 238.586 44.09C240.866 52.3233 242.006 60.7467 242.006 69.36C242.006 77.9733 240.866 86.3967 238.586 94.63C236.432 102.863 232.822 110.21 227.756 116.67C222.689 123.003 216.039 128.133 207.806 132.06C199.572 135.987 189.376 137.95 177.216 137.95C165.056 137.95 154.859 135.987 146.626 132.06C138.392 128.133 131.742 123.003 126.676 116.67C121.609 110.21 117.936 102.863 115.656 94.63C113.502 86.3967 112.426 77.9733 112.426 69.36C112.426 60.7467 113.502 52.3233 115.656 44.09C117.936 35.8567 121.609 28.5733 126.676 22.24C131.742 15.78 138.392 10.5867 146.626 6.65999C154.859 2.73333 165.056 0.769999 177.216 0.769999ZM177.216 134.91C191.402 134.91 202.612 129.337 210.846 118.19C219.079 106.917 223.196 90.64 223.196 69.36C223.196 48.08 219.079 31.8667 210.846 20.72C202.612 9.44666 191.402 3.80999 177.216 3.80999C170.122 3.80999 163.726 5.26666 158.026 8.17999C152.452 11.0933 147.639 15.4 143.586 21.1C139.659 26.6733 136.619 33.5133 134.466 41.62C132.312 49.7267 131.236 58.9733 131.236 69.36C131.236 79.7467 132.312 88.9933 134.466 97.1C136.619 105.207 139.659 112.11 143.586 117.81C147.639 123.383 152.452 127.627 158.026 130.54C163.726 133.453 170.122 134.91 177.216 134.91ZM365.541 2.85999V4.75999C362.501 4.75999 360.158 5.26666 358.511 6.28C356.865 7.29333 355.661 8.43333 354.901 9.7C354.015 11.22 353.508 12.93 353.381 14.83V86.65C353.381 94.7567 352.621 102.04 351.101 108.5C349.708 114.833 347.301 120.217 343.881 124.65C340.461 128.957 335.901 132.25 330.201 134.53C324.501 136.81 317.345 137.95 308.731 137.95C302.525 137.95 296.508 137.19 290.681 135.67C284.981 134.023 279.915 131.3 275.481 127.5C271.175 123.573 267.691 118.38 265.031 111.92C262.498 105.46 261.231 97.3533 261.231 87.6V10.08C261.231 9.06666 261.041 8.17999 260.661 7.41999C260.408 6.78666 259.901 6.21666 259.141 5.70999C258.508 5.07666 257.558 4.75999 256.291 4.75999V2.67H283.651V4.75999C282.511 4.75999 281.561 5.07666 280.801 5.70999C280.168 6.21666 279.725 6.78666 279.471 7.41999C279.091 8.17999 278.901 9.06666 278.901 10.08V93.87C278.901 98.1767 279.281 102.737 280.041 107.55C280.801 112.363 282.385 116.797 284.791 120.85C287.325 124.903 290.808 128.26 295.241 130.92C299.801 133.58 305.755 134.91 313.101 134.91C317.788 135.037 322.285 134.34 326.591 132.82C330.898 131.173 334.825 128.893 338.371 125.98C343.058 121.673 346.225 116.163 347.871 109.45C349.518 102.61 350.341 95.01 350.341 86.65V14.83C350.215 12.93 349.708 11.22 348.821 9.7C348.061 8.43333 346.858 7.29333 345.211 6.28C343.565 5.26666 341.221 4.75999 338.181 4.75999V2.85999H365.541ZM482.673 129.59C484.067 131.87 486.283 133.327 489.323 133.96V135.86H470.133C467.727 136.113 465.763 135.163 464.243 133.01L424.153 72.59H402.683L402.873 128.45C402.873 129.463 403.063 130.35 403.443 131.11C403.697 131.87 404.14 132.567 404.773 133.2C405.533 133.707 406.483 133.96 407.623 133.96V135.86H380.263V133.96C381.53 133.96 382.48 133.707 383.113 133.2C383.873 132.567 384.38 131.87 384.633 131.11C385.013 130.35 385.203 129.463 385.203 128.45V10.08C385.203 9.06666 385.013 8.17999 384.633 7.41999C384.38 6.78666 383.873 6.21666 383.113 5.70999C382.48 5.07666 381.53 4.75999 380.263 4.75999V2.67H419.783C426.623 2.67 433.59 2.85999 440.683 3.23999C447.777 3.61999 454.237 4.88666 460.063 7.04C465.89 9.19333 470.64 12.6767 474.313 17.49C477.987 22.1767 479.823 28.89 479.823 37.63C479.823 44.09 478.873 49.4733 476.973 53.78C475.073 57.96 472.477 61.38 469.183 64.04C465.89 66.5733 462.09 68.4733 457.783 69.74C453.603 70.88 449.107 71.64 444.293 72.02L482.673 129.59ZM427.763 69.55C429.79 69.55 432.64 69.36 436.313 68.98C440.113 68.6 443.85 67.46 447.523 65.56C451.197 63.5333 454.363 60.3667 457.023 56.06C459.81 51.7533 461.203 45.61 461.203 37.63C461.203 29.7767 460.063 23.76 457.783 19.58C455.63 15.2733 452.78 12.1067 449.233 10.08C445.687 7.92666 441.697 6.65999 437.263 6.28C432.83 5.89999 428.333 5.70999 423.773 5.70999H402.683V69.55H427.763ZM675.252 2.67V4.75999C672.212 4.63333 669.425 5.39333 666.892 7.04C664.358 8.68667 662.522 10.9033 661.382 13.69L610.652 137.95H609.132L555.932 10.08C554.918 7.92666 553.905 6.53332 552.892 5.89999C551.878 5.13999 550.612 4.75999 549.092 4.75999V2.67H578.542V4.75999C576.388 4.75999 574.995 5.26666 574.362 6.28C573.728 7.29333 573.728 8.49666 574.362 9.88999L617.302 114.39L658.342 13.31C659.228 11.1567 659.038 9.19333 657.772 7.41999C656.632 5.64666 654.352 4.75999 650.932 4.75999V2.67H675.252ZM713.029 4.75999C711.889 4.75999 710.939 5.07666 710.179 5.70999C709.546 6.21666 709.102 6.78666 708.849 7.41999C708.469 8.17999 708.279 9.06666 708.279 10.08V128.45C708.279 129.463 708.469 130.35 708.849 131.11C709.102 131.87 709.546 132.567 710.179 133.2C710.939 133.707 711.889 133.96 713.029 133.96V135.86H685.669V133.96C686.936 133.96 687.886 133.707 688.519 133.2C689.279 132.567 689.786 131.87 690.039 131.11C690.419 130.35 690.609 129.463 690.609 128.45V10.08C690.609 9.06666 690.419 8.17999 690.039 7.41999C689.786 6.78666 689.279 6.21666 688.519 5.70999C687.886 5.07666 686.936 4.75999 685.669 4.75999V2.67H713.029V4.75999ZM780.501 60.62C786.201 63.28 791.585 65.8133 796.651 68.22C801.718 70.6267 806.215 73.35 810.141 76.39C814.068 79.43 817.171 82.9767 819.451 87.03C821.731 91.0833 822.871 96.0233 822.871 101.85C822.871 113.503 818.628 122.433 810.141 128.64C801.655 134.847 789.938 137.95 774.991 137.95C768.278 137.95 762.388 137.253 757.321 135.86C752.381 134.34 748.138 132.63 744.591 130.73C741.171 128.703 738.385 126.74 736.231 124.84C734.078 122.813 732.558 121.357 731.671 120.47L729.391 97.29H731.481C733.255 104.637 735.598 110.78 738.511 115.72C741.551 120.533 744.971 124.397 748.771 127.31C752.571 130.097 756.688 132.06 761.121 133.2C765.681 134.34 770.431 134.91 775.371 134.91C785.251 134.91 792.978 132.503 798.551 127.69C804.125 122.877 806.911 116.797 806.911 109.45C806.911 105.017 805.581 101.153 802.921 97.86C800.388 94.44 797.221 91.4633 793.421 88.93C789.621 86.3967 785.505 84.18 781.071 82.28C776.765 80.2533 772.775 78.4167 769.101 76.77C766.061 75.3767 762.325 73.73 757.891 71.83C753.585 69.8033 749.341 67.27 745.161 64.23C741.108 61.19 737.625 57.5167 734.711 53.21C731.925 48.7767 730.531 43.4567 730.531 37.25C730.531 31.6767 731.545 26.6733 733.571 22.24C735.725 17.8067 738.765 14.0067 742.691 10.84C746.618 7.54666 751.305 5.07666 756.751 3.43C762.325 1.65667 768.531 0.769999 775.371 0.769999C782.971 0.516661 790.191 1.71999 797.031 4.38C803.998 7.03999 810.205 10.9667 815.651 16.16L818.121 39.72H816.031C813.498 28.0667 809.001 19.2 802.541 13.12C796.081 6.91333 787.151 3.80999 775.751 3.80999C771.318 3.80999 767.201 4.44333 763.401 5.70999C759.728 6.84999 756.498 8.49666 753.711 10.65C751.051 12.8033 748.961 15.4 747.441 18.44C745.921 21.48 745.161 24.9 745.161 28.7C745.161 32.88 746.111 36.5533 748.011 39.72C750.038 42.76 752.698 45.4833 755.991 47.89C759.285 50.17 763.021 52.3233 767.201 54.35C771.508 56.3767 775.941 58.4667 780.501 60.62ZM866.291 4.75999C865.151 4.75999 864.201 5.07666 863.441 5.70999C862.807 6.21666 862.364 6.78666 862.111 7.41999C861.731 8.17999 861.541 9.06666 861.541 10.08V128.45C861.541 129.463 861.731 130.35 862.111 131.11C862.364 131.87 862.807 132.567 863.441 133.2C864.201 133.707 865.151 133.96 866.291 133.96V135.86H838.931V133.96C840.197 133.96 841.147 133.707 841.781 133.2C842.541 132.567 843.047 131.87 843.301 131.11C843.681 130.35 843.871 129.463 843.871 128.45V10.08C843.871 9.06666 843.681 8.17999 843.301 7.41999C843.047 6.78666 842.541 6.21666 841.781 5.70999C841.147 5.07666 840.197 4.75999 838.931 4.75999V2.67H866.291V4.75999ZM946.493 0.769999C958.653 0.769999 968.85 2.73333 977.083 6.65999C985.316 10.5867 991.966 15.78 997.033 22.24C1002.1 28.5733 1005.71 35.8567 1007.86 44.09C1010.14 52.3233 1011.28 60.7467 1011.28 69.36C1011.28 77.9733 1010.14 86.3967 1007.86 94.63C1005.71 102.863 1002.1 110.21 997.033 116.67C991.966 123.003 985.316 128.133 977.083 132.06C968.85 135.987 958.653 137.95 946.493 137.95C934.333 137.95 924.136 135.987 915.903 132.06C907.67 128.133 901.02 123.003 895.953 116.67C890.886 110.21 887.213 102.863 884.933 94.63C882.78 86.3967 881.703 77.9733 881.703 69.36C881.703 60.7467 882.78 52.3233 884.933 44.09C887.213 35.8567 890.886 28.5733 895.953 22.24C901.02 15.78 907.67 10.5867 915.903 6.65999C924.136 2.73333 934.333 0.769999 946.493 0.769999ZM946.493 134.91C960.68 134.91 971.89 129.337 980.123 118.19C988.356 106.917 992.473 90.64 992.473 69.36C992.473 48.08 988.356 31.8667 980.123 20.72C971.89 9.44666 960.68 3.80999 946.493 3.80999C939.4 3.80999 933.003 5.26666 927.303 8.17999C921.73 11.0933 916.916 15.4 912.863 21.1C908.936 26.6733 905.896 33.5133 903.743 41.62C901.59 49.7267 900.513 58.9733 900.513 69.36C900.513 79.7467 901.59 88.9933 903.743 97.1C905.896 105.207 908.936 112.11 912.863 117.81C916.916 123.383 921.73 127.627 927.303 130.54C933.003 133.453 939.4 134.91 946.493 134.91ZM1137.1 2.67V4.75999C1134.06 4.75999 1131.72 5.26666 1130.07 6.28C1128.42 7.29333 1127.22 8.43333 1126.46 9.7C1125.57 11.0933 1125.07 12.74 1124.94 14.64V137.76H1122.85L1036.97 14.26V123.7C1037.1 125.6 1037.6 127.247 1038.49 128.64C1039.25 130.033 1040.45 131.237 1042.1 132.25C1043.75 133.263 1046.09 133.77 1049.13 133.77V135.86H1021.77V133.77C1024.81 133.77 1027.15 133.263 1028.8 132.25C1030.45 131.237 1031.65 130.097 1032.41 128.83C1033.3 127.437 1033.8 125.79 1033.93 123.89V14.83C1033.8 12.93 1033.3 11.22 1032.41 9.7C1031.65 8.43333 1030.45 7.29333 1028.8 6.28C1027.15 5.26666 1024.81 4.75999 1021.77 4.75999V2.85999H1049.7C1051.09 2.85999 1052.17 3.36666 1052.93 4.38L1121.9 102.99V14.64C1121.77 12.74 1121.27 11.0933 1120.38 9.7C1119.62 8.43333 1118.42 7.29333 1116.77 6.28C1115.12 5.26666 1112.78 4.75999 1109.74 4.75999V2.67H1137.1ZM96.6882 174.77C108.848 174.77 119.045 176.733 127.278 180.66C135.512 184.587 142.162 189.78 147.228 196.24C152.295 202.573 155.905 209.857 158.058 218.09C160.338 226.323 161.478 234.747 161.478 243.36C161.478 251.973 160.338 260.397 158.058 268.63C155.905 276.863 152.295 284.21 147.228 290.67C142.162 297.003 135.512 302.133 127.278 306.06C119.045 309.987 108.848 311.95 96.6882 311.95C84.5282 311.95 74.3316 309.987 66.0982 306.06C57.8649 302.133 51.2149 297.003 46.1482 290.67C41.0816 284.21 37.4082 276.863 35.1282 268.63C32.9749 260.397 31.8982 251.973 31.8982 243.36C31.8982 234.747 32.9749 226.323 35.1282 218.09C37.4082 209.857 41.0816 202.573 46.1482 196.24C51.2149 189.78 57.8649 184.587 66.0982 180.66C74.3316 176.733 84.5282 174.77 96.6882 174.77ZM96.6882 308.91C110.875 308.91 122.085 303.337 130.318 292.19C138.552 280.917 142.668 264.64 142.668 243.36C142.668 222.08 138.552 205.867 130.318 194.72C122.085 183.447 110.875 177.81 96.6882 177.81C89.5949 177.81 83.1982 179.267 77.4982 182.18C71.9249 185.093 67.1116 189.4 63.0582 195.1C59.1316 200.673 56.0916 207.513 53.9382 215.62C51.7849 223.727 50.7082 232.973 50.7082 243.36C50.7082 253.747 51.7849 262.993 53.9382 271.1C56.0916 279.207 59.1316 286.11 63.0582 291.81C67.1116 297.383 71.9249 301.627 77.4982 304.54C83.1982 307.453 89.5949 308.91 96.6882 308.91ZM285.014 176.86V178.76C281.974 178.76 279.631 179.267 277.984 180.28C276.337 181.293 275.134 182.433 274.374 183.7C273.487 185.22 272.981 186.93 272.854 188.83V260.65C272.854 268.757 272.094 276.04 270.574 282.5C269.181 288.833 266.774 294.217 263.354 298.65C259.934 302.957 255.374 306.25 249.674 308.53C243.974 310.81 236.817 311.95 228.204 311.95C221.997 311.95 215.981 311.19 210.154 309.67C204.454 308.023 199.387 305.3 194.954 301.5C190.647 297.573 187.164 292.38 184.504 285.92C181.971 279.46 180.704 271.353 180.704 261.6V184.08C180.704 183.067 180.514 182.18 180.134 181.42C179.881 180.787 179.374 180.217 178.614 179.71C177.981 179.077 177.031 178.76 175.764 178.76V176.67H203.124V178.76C201.984 178.76 201.034 179.077 200.274 179.71C199.641 180.217 199.197 180.787 198.944 181.42C198.564 182.18 198.374 183.067 198.374 184.08V267.87C198.374 272.177 198.754 276.737 199.514 281.55C200.274 286.363 201.857 290.797 204.264 294.85C206.797 298.903 210.281 302.26 214.714 304.92C219.274 307.58 225.227 308.91 232.574 308.91C237.261 309.037 241.757 308.34 246.064 306.82C250.371 305.173 254.297 302.893 257.844 299.98C262.531 295.673 265.697 290.163 267.344 283.45C268.991 276.61 269.814 269.01 269.814 260.65V188.83C269.687 186.93 269.181 185.22 268.294 183.7C267.534 182.433 266.331 181.293 264.684 180.28C263.037 179.267 260.694 178.76 257.654 178.76V176.86H285.014ZM402.146 303.59C403.539 305.87 405.756 307.327 408.796 307.96V309.86H389.606C387.199 310.113 385.236 309.163 383.716 307.01L343.626 246.59H322.156L322.346 302.45C322.346 303.463 322.536 304.35 322.916 305.11C323.169 305.87 323.613 306.567 324.246 307.2C325.006 307.707 325.956 307.96 327.096 307.96V309.86H299.736V307.96C301.003 307.96 301.953 307.707 302.586 307.2C303.346 306.567 303.853 305.87 304.106 305.11C304.486 304.35 304.676 303.463 304.676 302.45V184.08C304.676 183.067 304.486 182.18 304.106 181.42C303.853 180.787 303.346 180.217 302.586 179.71C301.953 179.077 301.003 178.76 299.736 178.76V176.67H339.256C346.096 176.67 353.063 176.86 360.156 177.24C367.249 177.62 373.709 178.887 379.536 181.04C385.363 183.193 390.113 186.677 393.786 191.49C397.459 196.177 399.296 202.89 399.296 211.63C399.296 218.09 398.346 223.473 396.446 227.78C394.546 231.96 391.949 235.38 388.656 238.04C385.363 240.573 381.563 242.473 377.256 243.74C373.076 244.88 368.579 245.64 363.766 246.02L402.146 303.59ZM347.236 243.55C349.263 243.55 352.113 243.36 355.786 242.98C359.586 242.6 363.323 241.46 366.996 239.56C370.669 237.533 373.836 234.367 376.496 230.06C379.283 225.753 380.676 219.61 380.676 211.63C380.676 203.777 379.536 197.76 377.256 193.58C375.103 189.273 372.253 186.107 368.706 184.08C365.159 181.927 361.169 180.66 356.736 180.28C352.303 179.9 347.806 179.71 343.246 179.71H322.156V243.55H347.236ZM529.744 176.67C541.904 176.67 552.291 178.507 560.904 182.18C569.518 185.853 576.611 190.793 582.184 197C587.758 203.207 591.811 210.363 594.344 218.47C597.004 226.45 598.334 234.747 598.334 243.36C598.334 251.973 597.004 260.333 594.344 268.44C591.811 276.42 587.758 283.513 582.184 289.72C576.611 295.8 569.518 300.677 560.904 304.35C552.291 308.023 541.904 309.86 529.744 309.86H477.114V307.96C478.381 307.96 479.331 307.707 479.964 307.2C480.724 306.567 481.231 305.87 481.484 305.11C481.864 304.35 482.054 303.463 482.054 302.45V184.08C482.054 183.067 481.864 182.18 481.484 181.42C481.231 180.787 480.724 180.217 479.964 179.71C479.331 179.077 478.381 178.76 477.114 178.76V176.67H529.744ZM526.894 306.82C533.988 306.82 540.701 305.49 547.034 302.83C553.368 300.043 558.941 295.99 563.754 290.67C568.568 285.35 572.368 278.763 575.154 270.91C578.068 262.93 579.524 253.747 579.524 243.36C579.524 232.973 578.068 223.853 575.154 216C572.368 208.02 568.568 201.37 563.754 196.05C558.941 190.603 553.368 186.55 547.034 183.89C540.701 181.103 533.988 179.71 526.894 179.71H499.534L499.724 306.82H526.894ZM716.091 303.59C717.485 305.87 719.701 307.327 722.741 307.96V309.86H703.551C701.145 310.113 699.181 309.163 697.661 307.01L657.571 246.59H636.101L636.291 302.45C636.291 303.463 636.481 304.35 636.861 305.11C637.115 305.87 637.558 306.567 638.191 307.2C638.951 307.707 639.901 307.96 641.041 307.96V309.86H613.681V307.96C614.948 307.96 615.898 307.707 616.531 307.2C617.291 306.567 617.798 305.87 618.051 305.11C618.431 304.35 618.621 303.463 618.621 302.45V184.08C618.621 183.067 618.431 182.18 618.051 181.42C617.798 180.787 617.291 180.217 616.531 179.71C615.898 179.077 614.948 178.76 613.681 178.76V176.67H653.201C660.041 176.67 667.008 176.86 674.101 177.24C681.195 177.62 687.655 178.887 693.481 181.04C699.308 183.193 704.058 186.677 707.731 191.49C711.405 196.177 713.241 202.89 713.241 211.63C713.241 218.09 712.291 223.473 710.391 227.78C708.491 231.96 705.895 235.38 702.601 238.04C699.308 240.573 695.508 242.473 691.201 243.74C687.021 244.88 682.525 245.64 677.711 246.02L716.091 303.59ZM661.181 243.55C663.208 243.55 666.058 243.36 669.731 242.98C673.531 242.6 677.268 241.46 680.941 239.56C684.615 237.533 687.781 234.367 690.441 230.06C693.228 225.753 694.621 219.61 694.621 211.63C694.621 203.777 693.481 197.76 691.201 193.58C689.048 189.273 686.198 186.107 682.651 184.08C679.105 181.927 675.115 180.66 670.681 180.28C666.248 179.9 661.751 179.71 657.191 179.71H636.101V243.55H661.181ZM809.694 306.82C814.761 306.82 818.434 305.363 820.714 302.45C823.121 299.537 824.704 295.99 825.464 291.81H827.554L825.654 309.86H735.024V307.96C736.291 307.96 737.241 307.707 737.874 307.2C738.634 306.567 739.141 305.87 739.394 305.11C739.774 304.35 739.964 303.463 739.964 302.45V184.08C739.964 183.067 739.774 182.18 739.394 181.42C739.141 180.787 738.634 180.217 737.874 179.71C737.241 179.077 736.291 178.76 735.024 178.76V176.86H825.654L827.554 194.91H825.464C824.704 190.603 823.121 186.993 820.714 184.08C818.434 181.167 814.761 179.71 809.694 179.71H757.634V239.37H798.484C800.384 239.243 802.094 238.737 803.614 237.85C804.881 237.09 806.021 235.887 807.034 234.24C808.048 232.593 808.554 230.25 808.554 227.21H810.454V254.57H808.554C808.554 251.53 808.048 249.187 807.034 247.54C806.021 245.893 804.881 244.69 803.614 243.93C802.094 243.043 800.384 242.537 798.484 242.41H757.634V306.82H809.694ZM957.185 302.45C958.198 304.603 959.212 306.06 960.225 306.82C961.238 307.58 962.505 307.96 964.025 307.96V309.86H934.765V307.96C936.792 307.96 938.122 307.453 938.755 306.44C939.388 305.427 939.388 304.223 938.755 302.83L921.655 262.17H867.695L852.115 299.22C851.228 301.373 851.355 303.4 852.495 305.3C853.762 307.073 856.042 307.96 859.335 307.96V309.86H835.205V307.96C838.245 308.087 841.032 307.327 843.565 305.68C846.098 304.033 847.935 301.753 849.075 298.84L901.135 174.77H902.655L957.185 302.45ZM920.325 259.13L894.485 198.33L869.025 259.13H920.325ZM1105.09 178.76C1103.95 178.76 1103 179.077 1102.24 179.71C1101.61 180.217 1101.16 180.787 1100.91 181.42C1100.53 182.18 1100.34 183.067 1100.34 184.08V302.45C1100.34 303.463 1100.53 304.35 1100.91 305.11C1101.16 305.87 1101.61 306.567 1102.24 307.2C1103 307.707 1103.95 307.96 1105.09 307.96V309.86H1077.73V307.96C1079 307.96 1079.95 307.707 1080.58 307.2C1081.34 306.567 1081.85 305.87 1082.1 305.11C1082.48 304.35 1082.67 303.463 1082.67 302.45V187.31L1035.93 297.51H1032.89L985.201 190.92V297.89C985.328 299.79 985.834 301.437 986.721 302.83C987.481 304.097 988.684 305.237 990.331 306.25C991.978 307.263 994.321 307.77 997.361 307.77V309.86H970.001V307.77C973.041 307.77 975.384 307.263 977.031 306.25C978.678 305.237 979.881 304.097 980.641 302.83C981.528 301.437 982.034 299.79 982.161 297.89V187.69C982.034 187.057 981.781 186.233 981.401 185.22C981.148 184.207 980.578 183.257 979.691 182.37C978.804 181.357 977.601 180.533 976.081 179.9C974.561 179.14 972.598 178.76 970.191 178.76V176.67H996.791C998.311 176.67 999.514 177.43 1000.4 178.95L1042.77 273.76L1083.81 176.86L1105.09 176.67V178.76Z" fill="white"/>
</svg>
